<svg xmlns="http://www.w3.org/2000/svg" version="1.1" xmlns:xlink="http://www.w3.org/1999/xlink" xmlns:svgjs="http://svgjs.dev/svgjs" width="1000" height="1000" viewBox="0 0 1000 1000"><rect width="1000" height="1000" fill="#444444"></rect><g transform="matrix(0.7,0,0,0.7,149.57646175024234,384.32949910670385)"><svg viewBox="0 0 396 131" data-background-color="#444444" preserveAspectRatio="xMidYMid meet" height="330" width="1000" xmlns="http://www.w3.org/2000/svg" xmlns:xlink="http://www.w3.org/1999/xlink"><g id="tight-bounds" transform="matrix(1,0,0,1,0.239601708447708,0.09784612979942153)"><svg viewBox="0 0 395.52 130.80546288742218" height="130.80546288742218" width="395.52"><g><svg viewBox="0 0 518.4083743985877 171.44682286084984" height="130.80546288742218" width="395.52"><g transform="matrix(1,0,0,1,0,23.69489375283814)"><svg viewBox="0 0 395.52 124.05703535517355" height="124.05703535517355" width="395.52"><g id="textblocktransform"><svg viewBox="0 0 395.52 124.05703535517355" height="124.05703535517355" width="395.52" id="textblock"><g><svg viewBox="0 0 395.52 124.05703535517355" height="124.05703535517355" width="395.52"><g transform="matrix(1,0,0,1,0,0)"><svg width="395.52" viewBox="0.6500000357627869 -36.04999923706055 154.13999938964844 48.349998474121094" height="124.05703535517355" data-palette-color="#ffffff"><path d="M11.3 0.5Q14.15 0.5 16.45-1.05 18.75-2.6 20.05-5.3 21.35-8 21.35-11.4L21.35-11.4Q21.35-14.45 20.3-16.78 19.25-19.1 17.35-20.4 15.45-21.7 13-21.7L13-21.7Q9.5-21.7 6.85-18.85L6.85-18.85 6.85-36.05 6.45-36.05 0.65-34.1 0.65-33.75 3.6-32.65 3.6 0 4 0 5.5-1.35 5.7-1.35Q8.15 0.5 11.3 0.5L11.3 0.5ZM11.25 0Q9.25 0 8.05-1.38 6.85-2.75 6.85-5.05L6.85-5.05 6.85-18.1Q7.6-19.1 8.78-19.65 9.95-20.2 11.3-20.2L11.3-20.2Q14.25-20.2 15.93-17.55 17.6-14.9 17.6-10.35L17.6-10.35Q17.6-5.65 15.88-2.83 14.15 0 11.25 0L11.25 0ZM41.85-5.1L42.3-5.7 42.5-5.6 42.3-5.05Q41.3-2.4 39.32-0.95 37.35 0.5 34.6 0.5L34.6 0.5Q31.9 0.5 29.8-0.9 27.7-2.3 26.52-4.8 25.35-7.3 25.35-10.55L25.35-10.55Q25.35-13.8 26.6-16.35 27.85-18.9 30.15-20.3 32.45-21.7 35.4-21.7L35.4-21.7Q38.9-21.7 40.77-19.63 42.65-17.55 42.7-13.6L42.7-13.6 42.4-13.35 28.9-13.35Q28.8-12.05 28.8-11.3L28.8-11.3Q28.8-6.75 30.65-4.38 32.5-2 35.8-2L35.8-2Q37.5-2 39.07-2.78 40.65-3.55 41.85-5.1L41.85-5.1ZM34.85-21.15Q32.5-21.15 30.95-19.2 29.4-17.25 28.95-13.9L28.95-13.9 38.65-14.25Q38.8-14.85 38.8-16.25L38.8-16.25Q38.8-18.95 37.77-20.05 36.75-21.15 34.85-21.15L34.85-21.15ZM63.8-0.8L66.8-0.4 66.8 0 57.5 0 57.5-0.4 60.55-0.8 60.55-13.55Q60.55-15.5 60.45-16.45 60.35-17.4 60.05-18.05L60.05-18.05Q59.65-18.9 58.72-19.38 57.8-19.85 56.6-19.85L56.6-19.85Q54.05-19.85 52.05-17.7L52.05-17.7 52.05-0.8 55.1-0.4 55.1 0 45.75 0 45.75-0.4 48.8-0.8 48.8-18.05 45.85-19.15 45.85-19.5 51.5-21.45 51.9-21.45 51.9-18.3Q55.1-21.7 58.6-21.7L58.6-21.7Q60.15-21.7 61.42-21.03 62.7-20.35 63.25-19.25L63.25-19.25Q63.6-18.6 63.7-17.48 63.8-16.35 63.8-13.55L63.8-13.55 63.8-0.8ZM84.49-22.05Q83.49-22.05 83.04-20L83.04-20Q84.34-19 85.04-17.57 85.74-16.15 85.74-14.4L85.74-14.4Q85.74-11.7 84.12-9.78 82.49-7.85 79.79-7.3L79.79-7.3Q79.19-7.15 78.59-7.15L78.59-7.15Q75.99-6.7 74.57-5.9 73.14-5.1 73.14-4.1L73.14-4.1Q73.14-3.4 73.59-2.93 74.04-2.45 75.29-2.02 76.54-1.6 79.04-1.15L79.04-1.15Q83.29-0.35 85.09 1.1 86.89 2.55 86.89 5.2L86.89 5.2Q86.89 7.2 85.59 8.83 84.29 10.45 81.99 11.38 79.69 12.3 76.84 12.3L76.84 12.3Q72.69 12.3 70.42 10.83 68.14 9.35 68.14 6.7L68.14 6.7Q68.14 4.85 69.62 3.28 71.09 1.7 73.59 0.9L73.59 0.9Q71.84 0.2 71.07-0.68 70.29-1.55 70.29-2.75L70.29-2.75Q70.29-4.15 71.97-5.3 73.64-6.45 76.79-7.15L76.79-7.15Q73.69-7.45 71.77-9.45 69.84-11.45 69.84-14.45L69.84-14.45Q69.84-17.65 72.07-19.68 74.29-21.7 77.79-21.7L77.79-21.7Q80.59-21.7 82.64-20.35L82.64-20.35Q83.89-24.65 86.49-24.65L86.49-24.65Q87.44-24.65 87.99-24.13 88.54-23.6 88.54-22.75L88.54-22.75Q88.54-22.05 88.04-21.55 87.54-21.05 86.84-21.05L86.84-21.05Q86.24-21.05 85.59-21.6L85.59-21.6Q85.49-21.65 85.17-21.85 84.84-22.05 84.49-22.05L84.49-22.05ZM77.79-7.6Q79.69-7.6 80.87-9.5 82.04-11.4 82.04-14.4L82.04-14.4Q82.04-17.4 80.87-19.3 79.69-21.2 77.79-21.2L77.79-21.2Q75.89-21.2 74.72-19.3 73.54-17.4 73.54-14.4L73.54-14.4Q73.54-11.4 74.72-9.5 75.89-7.6 77.79-7.6L77.79-7.6ZM83.99 6.7Q83.99 4.8 82.64 3.78 81.29 2.75 77.54 2L77.54 2Q75.44 1.65 74.09 1.1L74.09 1.1Q70.54 2.35 70.54 6.25L70.54 6.25Q70.54 8.9 72.27 10.35 73.99 11.8 77.14 11.8L77.14 11.8Q80.29 11.8 82.14 10.43 83.99 9.05 83.99 6.7L83.99 6.7ZM100.39-21.7Q101.39-21.7 102.09-21.03 102.79-20.35 102.79-19.4L102.79-19.4Q102.79-18.6 102.24-18.05 101.69-17.5 100.89-17.5L100.89-17.5Q100.39-17.5 100.07-17.73 99.74-17.95 99.39-18.4L99.39-18.4Q99.04-18.8 98.77-19 98.49-19.2 98.09-19.2L98.09-19.2Q97.29-19.2 96.47-18.25 95.64-17.3 95.29-16.05L95.29-16.05 95.29-0.8 99.29-0.4 99.29 0 88.99 0 88.99-0.4 92.04-0.8 92.04-18.3 89.09-19.4 89.09-19.75 94.74-21.7 95.14-21.7 95.14-17.3Q97.94-21.7 100.39-21.7L100.39-21.7ZM109.79 0.35Q107.89 0.35 106.66-0.98 105.44-2.3 105.44-4.4L105.44-4.4Q105.44-6.9 107.71-8.4 109.99-9.9 115.44-11L115.44-11 115.44-15.55Q115.44-18.45 114.79-19.58 114.14-20.7 112.54-20.7L112.54-20.7Q110.99-20.7 110.04-19.88 109.09-19.05 109.09-17.65L109.09-17.65 109.14-16.3Q109.14-15.05 108.66-14.33 108.19-13.6 107.34-13.6L107.34-13.6Q106.59-13.6 106.11-14.1 105.64-14.6 105.64-15.4L105.64-15.4Q105.64-16.6 106.81-18.03 107.99-19.45 109.84-20.4L109.84-20.4Q112.09-21.65 114.49-21.65L114.49-21.65Q115.89-21.65 116.86-21.1 117.84-20.55 118.29-19.55L118.29-19.55Q118.54-18.9 118.61-17.95 118.69-17 118.69-14.3L118.69-14.3 118.69-4.75Q118.69-2.95 119.04-2.27 119.39-1.6 120.29-1.6L120.29-1.6Q121.64-1.6 122.29-2.55L122.29-2.55 122.49-2.45Q121.89-1.2 120.89-0.53 119.89 0.15 118.74 0.15L118.74 0.15Q117.44 0.15 116.59-0.63 115.74-1.4 115.64-2.7L115.64-2.7 115.49-2.75Q114.34-1.3 112.84-0.48 111.34 0.35 109.79 0.35L109.79 0.35ZM111.94-1.55Q112.99-1.55 113.91-2.02 114.84-2.5 115.44-3.4L115.44-3.4 115.44-10.45Q112.84-9.8 111.41-9.15 109.99-8.5 109.39-7.6 108.79-6.7 108.79-5.35L108.79-5.35Q108.79-3.6 109.64-2.58 110.49-1.55 111.94-1.55L111.94-1.55ZM151.69-0.8L154.79-0.4 154.79 0 145.39 0 145.39-0.4 148.44-0.8 148.44-13.55Q148.44-15.5 148.34-16.45 148.24-17.4 147.99-18.05L147.99-18.05Q147.24-19.85 144.99-19.85L144.99-19.85Q142.59-19.85 140.94-17.65L140.94-17.65Q141.03-15.95 141.03-13.55L141.03-13.55 141.03-0.8 144.14-0.4 144.14 0 134.69 0 134.69-0.4 137.78-0.8 137.78-13.55Q137.78-15.5 137.69-16.45 137.59-17.4 137.34-18.05L137.34-18.05Q136.59-19.85 134.34-19.85L134.34-19.85Q131.99-19.85 130.39-17.8L130.39-17.8 130.39-0.8 133.44-0.4 133.44 0 124.14 0 124.14-0.4 127.14-0.8 127.14-18.3 124.19-19.4 124.19-19.75 129.84-21.7 130.24-21.7 130.24-18.35Q133.19-21.7 136.39-21.7L136.39-21.7Q139.28-21.7 140.49-19.25L140.49-19.25Q140.69-18.85 140.84-18.25L140.84-18.25Q143.89-21.7 147.04-21.7L147.04-21.7Q149.94-21.7 151.14-19.25L151.14-19.25Q151.49-18.6 151.59-17.43 151.69-16.25 151.69-13.55L151.69-13.55 151.69-0.8Z" opacity="1" transform="matrix(1,0,0,1,0,0)" fill="#ffffff" class="wordmark-text-0" data-fill-palette-color="primary" id="text-0"></path></svg></g></svg></g></svg></g></svg></g><g transform="matrix(1,0,0,1,424.80688867850796,0)"><svg viewBox="0 0 93.60148572007978 171.44682286084984" height="171.44682286084984" width="93.60148572007978"><g><svg xmlns:x="http://ns.adobe.com/Extensibility/1.0/" xmlns:i="http://ns.adobe.com/AdobeIllustrator/10.0/" xmlns:graph="http://ns.adobe.com/Graphs/1.0/" xmlns="http://www.w3.org/2000/svg" xmlns:xlink="http://www.w3.org/1999/xlink" xmlns:a="http://ns.adobe.com/AdobeSVGViewerExtensions/3.0/" version="1.1" x="0" y="0" viewBox="29 11.5341796875 42.01953125 76.9658203125" enable-background="new 0 0 100 100" xml:space="preserve" height="171.44682286084984" width="93.60148572007978" class="icon-icon-0" data-fill-palette-color="accent" id="icon-0"><path d="M50 63.365c7.369 0 13.365-5.996 13.365-13.365S57.369 36.635 50 36.635 36.635 42.631 36.635 50 42.631 63.365 50 63.365zM50 38.635c6.267 0 11.365 5.099 11.365 11.365S56.267 61.365 50 61.365 38.635 56.267 38.635 50 43.733 38.635 50 38.635z" fill="#00d1cd" data-fill-palette-color="accent"></path><path d="M47.053 55.895C47.196 55.966 47.349 56 47.499 56c0.367 0 0.72-0.202 0.896-0.553l2.5-5C50.964 50.309 51 50.155 51 50v-7.5c0-0.553-0.447-1-1-1s-1 0.447-1 1v7.264l-2.395 4.789C46.358 55.047 46.559 55.647 47.053 55.895z" fill="#00d1cd" data-fill-palette-color="accent"></path><path d="M70.405 31.577l-12.176-7.306-7.372-12.286c-0.361-0.602-1.354-0.602-1.714 0l-7.372 12.286-12.286 7.372c-0.044 0.027-0.076 0.066-0.115 0.098-0.033 0.028-0.07 0.053-0.099 0.084-0.065 0.07-0.117 0.15-0.159 0.236-0.01 0.021-0.026 0.038-0.035 0.059-0.045 0.11-0.068 0.23-0.072 0.355C29.005 32.484 29 32.491 29 32.5V70c0 0.553 0.447 1 1 1h4v16.5c0 0.553 0.447 1 1 1h30c0.553 0 1-0.447 1-1V71h4c0.553 0 1-0.447 1-1V32.597c0.003-0.034 0.02-0.063 0.02-0.097C71.02 32.084 70.767 31.728 70.405 31.577zM50 14.443L55.733 24H44.267L50 14.443zM42.777 26h14.446l9.167 5.5H33.61L42.777 26zM64 86.5H36V71h28V86.5zM69 69h-4H35h-4V33.5h38V69z" fill="#00d1cd" data-fill-palette-color="accent"></path></svg></g></svg></g></svg></g><defs></defs></svg><rect width="395.52" height="130.80546288742218" fill="none" stroke="none" visibility="hidden"></rect></g></svg></g></svg>